<svg id="Capa_1" enable-background="new 0 0 512 512" height="512" viewBox="0 0 512 512" width="512" xmlns="http://www.w3.org/2000/svg" xmlns:xlink="http://www.w3.org/1999/xlink"><linearGradient id="SVGID_1_" gradientUnits="userSpaceOnUse" x1="256" x2="256" y1="512" y2="0"><stop offset="0" stop-color="#ffc8d1"/><stop offset="1" stop-color="#fff6f7"/></linearGradient><linearGradient id="SVGID_2_" gradientUnits="userSpaceOnUse" x1="256" x2="256" y1="407" y2="105"><stop offset="0" stop-color="#ffa68d"/><stop offset="1" stop-color="#fd3a84"/></linearGradient><g><circle cx="256" cy="256" fill="url(#SVGID_1_)" r="256"/><g><g><path d="m220.471 105h-88.824c-14.694 0-26.647 11.953-26.647 26.647v88.824c0 14.694 11.953 26.647 26.647 26.647h88.824c14.694 0 26.647-11.953 26.647-26.647v-88.824c0-14.694-11.953-26.647-26.647-26.647zm-17.765 79.941h-17.765v17.765c0 4.91-3.973 8.882-8.882 8.882-4.91 0-8.882-3.973-8.882-8.882v-17.765h-17.765c-4.909 0-8.882-3.973-8.882-8.882 0-4.91 3.973-8.882 8.882-8.882h17.765v-17.765c0-4.91 3.973-8.882 8.882-8.882s8.882 3.973 8.882 8.882v17.765h17.765c4.91 0 8.883 3.973 8.883 8.882-.001 4.909-3.974 8.882-8.883 8.882zm177.647-79.941h-88.824c-14.694 0-26.647 11.953-26.647 26.647v88.824c0 14.694 11.953 26.647 26.647 26.647h88.824c14.694 0 26.647-11.953 26.647-26.647v-88.824c0-14.694-11.953-26.647-26.647-26.647zm-17.765 79.941h-53.294c-4.91 0-8.883-3.973-8.883-8.882 0-4.91 3.973-8.882 8.883-8.882h53.294c4.909 0 8.882 3.973 8.882 8.882.001 4.909-3.972 8.882-8.882 8.882zm-142.117 79.941h-88.824c-14.694 0-26.647 11.953-26.647 26.647v88.823c0 14.695 11.953 26.648 26.647 26.648h88.824c14.694 0 26.647-11.953 26.647-26.647v-88.823c0-14.695-11.953-26.648-26.647-26.648zm-19.292 83.619c3.47 3.47 3.47 9.091 0 12.56-3.469 3.47-9.09 3.47-12.56 0l-12.56-12.56-12.56 12.56c-3.469 3.47-9.09 3.47-12.56 0s-3.47-9.091 0-12.56l12.56-12.56-12.56-12.56c-3.47-3.47-3.47-9.091 0-12.56s9.09-3.47 12.56 0l12.56 12.56 12.56-12.56c3.469-3.47 9.09-3.47 12.56 0s3.47 9.091 0 12.56l-12.56 12.56zm179.174-83.619h-88.824c-14.694 0-26.647 11.953-26.647 26.647v88.823c0 14.694 11.953 26.647 26.647 26.647h88.824c14.694.001 26.647-11.952 26.647-26.646v-88.823c0-14.695-11.953-26.648-26.647-26.648zm-17.765 97.706h-53.294c-4.91 0-8.883-3.973-8.883-8.882s3.973-8.882 8.883-8.882h53.294c4.909 0 8.882 3.973 8.882 8.882s-3.972 8.882-8.882 8.882zm0-35.529h-53.294c-4.91 0-8.883-3.973-8.883-8.882s3.973-8.882 8.883-8.882h53.294c4.909 0 8.882 3.973 8.882 8.882s-3.972 8.882-8.882 8.882z" fill="url(#SVGID_2_)"/></g></g></g></svg>